<?xml version="1.0" encoding="UTF-8" standalone="no"?>
<!-- Created with Inkscape (http://www.inkscape.org/) -->
<svg
   xmlns:dc="http://purl.org/dc/elements/1.1/"
   xmlns:cc="http://web.resource.org/cc/"
   xmlns:rdf="http://www.w3.org/1999/02/22-rdf-syntax-ns#"
   xmlns:svg="http://www.w3.org/2000/svg"
   xmlns="http://www.w3.org/2000/svg"
   xmlns:sodipodi="http://sodipodi.sourceforge.net/DTD/sodipodi-0.dtd"
   xmlns:inkscape="http://www.inkscape.org/namespaces/inkscape"
   version="1.0"
   width="24"
   height="24"
   viewBox="0 0 24 24"
   id="svg2"
   sodipodi:version="0.32"
   inkscape:version="0.44.1"
   sodipodi:docname="message_connector.svg"
   sodipodi:docbase="C:\apps\eclipse-workspace-gmf\trunk\org.eclipse.stp.bpmn.edit\icons\full\objsvg"
   inkscape:export-filename="C:\apps\eclipse-workspace-gmf\trunk\org.eclipse.stp.bpmn.edit\icons\full\obj48\activities\message_connector.png"
   inkscape:export-xdpi="180"
   inkscape:export-ydpi="180">
  <metadata
     id="metadata11">
    <rdf:RDF>
      <cc:Work
         rdf:about="">
        <dc:format>image/svg+xml</dc:format>
        <dc:type
           rdf:resource="http://purl.org/dc/dcmitype/StillImage" />
      </cc:Work>
    </rdf:RDF>
  </metadata>
  <sodipodi:namedview
     inkscape:window-height="576"
     inkscape:window-width="853"
     inkscape:pageshadow="2"
     inkscape:pageopacity="0.0"
     guidetolerance="10.0"
     gridtolerance="10.0"
     objecttolerance="10.0"
     borderopacity="1.0"
     bordercolor="#666666"
     pagecolor="#ffffff"
     id="base"
     inkscape:zoom="21.922116"
     inkscape:cx="12.207845"
     inkscape:cy="14.16741"
     inkscape:window-x="140"
     inkscape:window-y="278"
     inkscape:current-layer="svg2" />
  <defs
     id="defs13">
    <marker
       inkscape:stockid="Dot_m"
       orient="auto"
       refY="0.0"
       refX="0.0"
       id="Dot_m"
       style="overflow:visible">
      <path
         id="path2888"
         d="M -2.5,-1.0 C -2.5,1.7600000 -4.7400000,4.0 -7.5,4.0 C -10.260000,4.0 -12.5,1.7600000 -12.5,-1.0 C -12.5,-3.7600000 -10.260000,-6.0 -7.5,-6.0 C -4.7400000,-6.0 -2.5,-3.7600000 -2.5,-1.0 z "
         style="fill-rule:evenodd;stroke:#000000;stroke-width:1.0pt;marker-start:none;marker-end:none"
         transform="scale(0.4) translate(7.4, 1)" />
    </marker>
    <marker
       inkscape:stockid="Dot_s"
       orient="auto"
       refY="0.0"
       refX="0.0"
       id="Dot_s"
       style="overflow:visible">
      <path
         id="path2885"
         d="M -2.5,-1.0 C -2.5,1.7600000 -4.7400000,4.0 -7.5,4.0 C -10.260000,4.0 -12.5,1.7600000 -12.5,-1.0 C -12.5,-3.7600000 -10.260000,-6.0 -7.5,-6.0 C -4.7400000,-6.0 -2.5,-3.7600000 -2.5,-1.0 z "
         style="fill-rule:evenodd;stroke:#000000;stroke-width:1.0pt;marker-start:none;marker-end:none"
         transform="scale(0.2) translate(7.4, 1)" />
    </marker>
    <marker
       inkscape:stockid="TriangleOutM"
       orient="auto"
       refY="0.0"
       refX="0.0"
       id="TriangleOutM"
       style="overflow:visible">
      <path
         id="path2852"
         d="M 5.77,0.0 L -2.88,5.0 L -2.88,-5.0 L 5.77,0.0 z "
         style="fill-rule:evenodd;stroke:#000000;stroke-width:1.0pt;marker-start:none"
         transform="scale(0.4)" />
    </marker>
    <marker
       inkscape:stockid="Arrow2Lend"
       orient="auto"
       refY="0.0"
       refX="0.0"
       id="Arrow2Lend"
       style="overflow:visible;">
      <path
         id="path2932"
         style="font-size:12.0;fill-rule:evenodd;stroke-width:0.62500000;stroke-linejoin:round;"
         d="M 8.7185878,4.0337352 L -2.2072895,0.016013256 L 8.7185884,-4.0017078 C 6.9730900,-1.6296469 6.9831476,1.6157441 8.7185878,4.0337352 z "
         transform="scale(1.1) rotate(180) translate(1,0)" />
    </marker>
  </defs>
  <path
     style="fill:none;fill-rule:evenodd;stroke:black;stroke-width:1.75199997;stroke-linecap:butt;stroke-linejoin:miter;marker-start:url(#Dot_m);marker-end:url(#TriangleOutM);stroke-miterlimit:4;stroke-dasharray:3.50400002, 1.75200002, 0.87600001, 1.75200002;stroke-dashoffset:0;stroke-opacity:1"
     d="M 4.9253721,11.872099 C 18.884649,11.872099 18.884649,11.872099 18.884649,11.872099"
     id="path1892" />
  <polygon
     id="polygon3861"
     points="5,5 135,230 265,5 5,5 "
     transform="matrix(8.235816e-5,-1.923077e-2,1.923077e-2,8.235816e-5,17.41815,14.59574)"
     style="fill:white;fill-opacity:1" />
  <path
     sodipodi:type="arc"
     style="opacity:1;fill:white;fill-opacity:1;stroke:none;stroke-width:1.85800004;stroke-linecap:square;stroke-linejoin:miter;stroke-miterlimit:4;stroke-dasharray:3.716, 1.858, 0.929, 1.858;stroke-dashoffset:0;stroke-opacity:1"
     id="path3877"
     sodipodi:cx="-3.4212027"
     sodipodi:cy="4.5675693"
     sodipodi:rx="0.54739243"
     sodipodi:ry="0.59300846"
     d="M -2.8738102 4.5675693 A 0.54739243 0.59300846 0 1 1  -3.9685951,4.5675693 A 0.54739243 0.59300846 0 1 1  -2.8738102 4.5675693 z"
     transform="matrix(4.567107,0,0,4.215791,20.54264,-7.255917)" />
</svg>
