<?xml version="1.0" encoding="UTF-8" standalone="no"?>
<!-- Created with Inkscape (http://www.inkscape.org/) -->

<svg
   xmlns:dc="http://purl.org/dc/elements/1.1/"
   xmlns:cc="http://creativecommons.org/ns#"
   xmlns:rdf="http://www.w3.org/1999/02/22-rdf-syntax-ns#"
   xmlns:svg="http://www.w3.org/2000/svg"
   xmlns="http://www.w3.org/2000/svg"
   xmlns:sodipodi="http://sodipodi.sourceforge.net/DTD/sodipodi-0.dtd"
   xmlns:inkscape="http://www.inkscape.org/namespaces/inkscape"
   width="16"
   height="16"
   id="svg2"
   version="1.1"
   inkscape:version="0.47 r22583"
   sodipodi:docname="User.svg">
  <defs
     id="defs4">
    <inkscape:perspective
       sodipodi:type="inkscape:persp3d"
       inkscape:vp_x="0 : 526.18109 : 1"
       inkscape:vp_y="0 : 1000 : 0"
       inkscape:vp_z="744.09448 : 526.18109 : 1"
       inkscape:persp3d-origin="372.04724 : 350.78739 : 1"
       id="perspective10" />
  </defs>
  <sodipodi:namedview
     id="base"
     pagecolor="#ffffff"
     bordercolor="#666666"
     borderopacity="1.0"
     inkscape:pageopacity="0.0"
     inkscape:pageshadow="2"
     inkscape:zoom="27.265644"
     inkscape:cx="0.19146479"
     inkscape:cy="7.2616765"
     inkscape:document-units="px"
     inkscape:current-layer="layer1"
     showgrid="false"
     inkscape:window-width="1325"
     inkscape:window-height="785"
     inkscape:window-x="4"
     inkscape:window-y="0"
     inkscape:window-maximized="0" />
  <metadata
     id="metadata7">
    <rdf:RDF>
      <cc:Work
         rdf:about="">
        <dc:format>image/svg+xml</dc:format>
        <dc:type
           rdf:resource="http://purl.org/dc/dcmitype/StillImage" />
        <dc:title></dc:title>
      </cc:Work>
    </rdf:RDF>
  </metadata>
  <g
     inkscape:label="Layer 1"
     inkscape:groupmode="layer"
     id="layer1"
     transform="translate(0,-1036.3622)">
    <path
       style="fill:none;stroke:#000000;stroke-width:0.97319341px;stroke-linecap:butt;stroke-linejoin:miter;stroke-opacity:1"
       d="m 2.4865968,1052.3756 0,-8.2001 c 0,0 0.034646,-2.1511 2.0268066,-2.1511 l 7.0029216,0"
       id="path3628" />
    <path
       id="path3656"
       d="m 11.486597,1042.0611 c 1.992156,0 2.026806,2.1512 2.026806,2.1512 l 0,8.2"
       style="fill:none;stroke:#000000;stroke-width:0.97319329px;stroke-linecap:butt;stroke-linejoin:miter;stroke-opacity:1" />
    <path
       sodipodi:type="arc"
       style="fill:none;stroke:#000000;stroke-width:0.5;stroke-linecap:butt;stroke-linejoin:round;stroke-miterlimit:4;stroke-opacity:1;stroke-dasharray:none"
       id="path3681"
       sodipodi:cx="7.9220576"
       sodipodi:cy="2.686542"
       sodipodi:rx="2.9340954"
       sodipodi:ry="2.677362"
       d="m 10.850552,2.521185 a 2.9340954,2.677362 0 1 1 -0.0069,-0.081382"
       transform="matrix(0.89956124,0,0,0.96527001,0.88737228,1036.5656)"
       sodipodi:start="6.2213848"
       sodipodi:end="12.474082"
       sodipodi:open="true" />
    <path
       style="fill:none;stroke:#000000;stroke-width:0.9143095px;stroke-linecap:butt;stroke-linejoin:miter;stroke-opacity:1"
       d="m 8.0000199,1042.0027 c 0,1.4104 0,1.4104 0,1.4104"
       id="path3689" />
    <path
       style="fill:none;stroke:#bbbbbb;stroke-width:1.01006329px;stroke-linecap:butt;stroke-linejoin:miter;stroke-opacity:1"
       d="m 2.9443407,1044.6602 10.0654623,0"
       id="path3691" />
    <path
       id="path3693"
       d="m 2.9810169,1046.6041 10.0654621,0"
       style="fill:none;stroke:#bbbbbb;stroke-width:1.01006329px;stroke-linecap:butt;stroke-linejoin:miter;stroke-opacity:1" />
    <path
       style="fill:none;stroke:#bbbbbb;stroke-width:1.01006329px;stroke-linecap:butt;stroke-linejoin:miter;stroke-opacity:1"
       d="m 2.9443407,1048.7313 10.0654623,0"
       id="path3701" />
    <path
       id="path3703"
       d="m 2.9443407,1050.9319 10.0654623,0"
       style="fill:none;stroke:#bbbbbb;stroke-width:1.01006329px;stroke-linecap:butt;stroke-linejoin:miter;stroke-opacity:1" />
    <path
       style="fill:none;stroke:#000000;stroke-width:1.2586925px;stroke-linecap:butt;stroke-linejoin:miter;stroke-opacity:1"
       d="m 5.0835,1052.3677 0,-7.7256"
       id="path3685" />
    <path
       id="path3718"
       d="m 10.658281,1052.4411 0,-7.7256"
       style="fill:none;stroke:#000000;stroke-width:1.2586925px;stroke-linecap:butt;stroke-linejoin:miter;stroke-opacity:1" />
    <path
       style="fill:none;stroke:#000000;stroke-width:0.50000000000000000;stroke-linecap:butt;stroke-linejoin:round;stroke-miterlimit:4;stroke-opacity:1;stroke-dasharray:none"
       id="path3720"
       d="M 9.6661128,1.2643716 C 9.6420433,1.2283524 9.6260481,1.1853571 9.5939043,1.1563141 9.4703496,1.0446787 9.1605687,1.0226447 8.9978322,1.0085373 c -0.022013,-0.0500395 -0.055772,0.015667 -0.079945,0.00436 -0.1183611,-0.0553766 0.023355,-0.0209416 -0.1011078,-0.0688783 -0.05657,-0.021788 -0.092988,-0.0163121 -0.1528484,-0.0167875 -0.041168,-0.003525 -0.080836,0.0179073 -0.1217654,0.0164309 -0.071498,-0.002579 -0.1410523,-0.0249099 -0.2122638,-0.0318027 -0.5493705,-0.0531761 0.1932153,0.033636 -0.3443695,-0.0316086 -0.094424,-0.0103853 -0.1296881,-0.00499 -0.2085244,-0.0386876 -0.012278,-0.005248 -0.036132,-0.0371756 -0.0316,-0.0246161 0.00837,0.0232051 0.051091,0.003172 -0.043026,0.0152887 -0.06227,0.0135437 -0.2859728,-0.0148609 -0.3233384,0.0197499 -0.014114,0.0130732 -0.021458,0.0319367 -0.032182,0.0479087 -0.018248,0.0271783 -0.036488,0.0543615 -0.054732,0.0815423 -0.034483,0.07876 -0.095952,0.14285265 -0.1329311,0.22008115 -0.00597,0.012463 -0.00721,0.026713 -0.011938,0.039698 -0.017444,0.047938 -0.019497,0.039041 -0.062225,0.085983 -0.04023,0.062419 -0.060742,0.1451964 -0.1206036,0.1941599 -0.052056,0.042579 -0.1290447,0.052985 -0.1892236,0.080338 -0.011544,0.00394 -0.024224,0.00546 -0.034631,0.011823 -0.015118,0.00924 -0.02597,0.024342 -0.040678,0.034225 -0.116698,0.07842 -0.2452155,0.1333488 -0.3816993,0.1646521 -0.1583213,0.06169 -0.3215779,0.1081135 -0.4828112,0.161119 -0.3437414,0.1130051 0.049178,-0.010103 -0.1580477,0.054343 0.00345,5.087e-4 0.00691,0.00102 0.010363,0.00153 0,0 -0.036307,-0.00519 -0.036307,-0.00519 l 0,0 c 0.00502,-0.010454 0.010042,-0.020908 0.015064,-0.031363 0.1954144,-0.060631 -0.1757624,0.055423 0.1582594,-0.054409 0.1620676,-0.05329 0.3260793,-0.1001932 0.485364,-0.1617957 0.1312644,-0.029441 0.2542481,-0.083035 0.3668004,-0.1574416 0.018295,-0.012094 0.033216,-0.028961 0.051924,-0.040406 0.00939,-0.00575 0.02088,-0.00701 0.031319,-0.010519 0.043985,-0.019699 0.1440844,-0.044541 0.1754935,-0.069602 0.061284,-0.048897 0.079013,-0.1352766 0.122656,-0.1965468 0.060691,-0.062478 0.035724,-0.048853 0.069443,-0.1194217 0.03719,-0.077833 0.099378,-0.1422807 0.1339597,-0.2217032 0.01177,-0.0175193 0.07991,-0.12398311 0.1040304,-0.14317148 0.050635,-0.0402812 0.2606506,-0.006923 0.3321993,-0.0219854 0.036911,-0.004283 0.04094,-0.007107 0.074543,-0.003658 0.00719,7.3826e-4 0.00944,0.0116949 0.016072,0.0145673 0.076609,0.0331638 0.1062235,0.026627 0.2014324,0.0371003 0.5250093,0.0639094 -0.2036775,-0.0215388 0.3451716,0.0317151 0.042165,0.004091 0.083944,0.0115225 0.12579,0.018119 0.025422,0.004008 0.050267,0.0127333 0.075986,0.0136885 0.042844,0.001591 0.08434,-0.0215345 0.1275181,-0.0168068 0.07033,0.001295 0.1052357,-0.004762 0.1715067,0.022181 0.021659,0.008805 0.039701,0.0247044 0.059552,0.0370566 0.00528,0.009005 0.0065,0.0223532 0.015844,0.0270164 0.026785,0.013372 0.065026,-0.0508087 0.089683,-0.004811 0.182974,0.0159589 0.4837431,0.0362774 0.6234113,0.16397081 0.033092,0.030255 0.049664,0.074666 0.074496,0.1119997 0,0 -0.032804,0.016402 -0.032804,0.016402 z"
       transform="translate(0,1036.3622)" />
    <path
       style="fill:none;stroke:#000000;stroke-width:0.50000000000000000;stroke-linecap:butt;stroke-linejoin:round;stroke-miterlimit:4;stroke-opacity:1;stroke-dasharray:none"
       id="path3722"
       d="m 9.4807958,0.83439432 c -0.055014,0 -0.1100286,0 -0.1650429,0 -0.058071,0 -0.1162359,0.003315 -0.1742119,0 -0.1359861,-0.007776 -0.2692303,-0.046218 -0.4057304,-0.0458452 -0.082953,0.0191092 -0.1689311,0.0105906 -0.2533178,0.009166 -0.051184,0.005679 -0.098665,-0.008769 -0.1398931,-0.0393852 -0.011766,-0.008738 -0.019666,-0.0224234 -0.032335,-0.0297915 -0.013195,-0.007674 -0.029246,-0.00885 -0.043499,-0.0143131 -0.018474,-0.00708 -0.036397,-0.0155208 -0.054595,-0.0232813 C 8.154573,0.65288007 8.1026438,0.60265025 8.043317,0.56704743 c -0.00852,-0.005112 -0.019729,-0.004682 -0.028022,-0.0101531 -0.042319,-0.0279199 0.00426,-0.0189686 -0.0409,-0.0228536 -0.079163,2.9507e-4 -0.157485,0.009822 -0.2367757,0.008011 -0.075969,-0.001779 -0.1519617,-0.001671 -0.2279453,-0.001336 -0.013874,6.128e-5 -0.028166,-0.003148 -0.041622,2.3236e-4 -0.0091,0.002287 -0.015428,0.0106915 -0.023142,0.0160373 -0.024568,0.0205154 -0.031569,0.0565204 -0.0557,0.0770755 -0.055029,0.0468757 -0.1412405,0.068322 -0.2115105,0.0650392 -0.016953,0.0111752 -0.039552,0.0114944 -0.05635,0.0228331 -0.03263,0.0220251 -0.099118,0.0925835 -0.1190579,0.11332037 -0.056243,0.0584895 -0.1112907,0.11811623 -0.1670479,0.17706864 -0.034589,0.012173 -0.084562,0.1068112 -0.122689,0.1233477 -0.057432,0.02491 -0.058031,-0.00331 -0.101146,0.04445 -0.010936,0.00787 -0.024931,0.01267 -0.032808,0.023599 -0.07539,0.1046054 0.1067388,-0.060231 -0.050668,0.09243 -0.015194,0.014736 -0.03762,0.020304 -0.053282,0.034542 -0.019566,0.017787 -0.030743,0.043182 -0.048508,0.062769 -0.00954,0.00837 -0.017624,0.018787 -0.028627,0.025121 -0.012359,0.00711 -0.027586,0.00795 -0.04024,0.014524 -0.072118,0.03747 -0.033763,0.033207 -0.1124405,0.064843 -0.064311,0.017162 -0.035552,0.00689 -0.087004,0.028683 -0.020429,0.017331 -0.046716,0.00537 -0.069005,0.012394 -0.00336,0.00106 -0.00234,0.00665 -0.00351,0.00998 -0.014209,0.00614 -0.027723,0.014246 -0.042628,0.018429 -0.03771,0.010584 -0.062861,0.00787 -0.1012095,0.0077 -0.014495,-0.00129 -0.02899,-0.00259 -0.043484,-0.00388 0,0 0.00331,-0.036526 0.00331,-0.036526 l 0,0 c 0.013494,0.00124 0.026987,0.00249 0.040481,0.00373 0.038631,5.11e-4 0.082188,0.00348 0.1177771,-0.015574 0.010051,-0.00538 0.016777,-0.01632 0.027389,-0.020488 0.017856,-0.00701 0.040712,0.00838 0.056743,-0.00961 0.053963,-0.022259 0.025922,-0.013008 0.084241,-0.027391 0.064001,-0.025551 0.054762,-0.035033 0.1180929,-0.067201 0.00842,-0.00428 0.019127,-0.00267 0.02738,-0.00726 0.00989,-0.00549 0.0171,-0.014807 0.02565,-0.022211 0.02014,-0.021884 0.034298,-0.049204 0.056292,-0.069224 0.012266,-0.011166 0.030811,-0.013791 0.043002,-0.025039 0.064484,-0.059495 0.011153,-0.03293 0.059024,-0.1006572 0.00659,-0.00932 0.018714,-0.013064 0.028071,-0.019596 0.028679,-0.026845 0.030899,-0.037136 0.068982,-0.044678 0.010758,-0.00213 0.022764,0.00371 0.032896,-4.86e-4 0.036371,-0.01506 0.088876,-0.11272747 0.1212697,-0.12192714 0.055942,-0.0591473 0.1111219,-0.11901928 0.1676074,-0.17764744 0.036407,-0.0377876 0.085576,-0.0911602 0.1316233,-0.12163256 0.01058,-0.007002 0.062716,-0.0223989 0.072076,-0.0253502 0.050984,0.003947 0.084715,-0.007366 0.1321571,-0.0278017 0.015854,-0.006829 0.033963,-0.0103649 0.047064,-0.0216047 0.028042,-0.0240579 0.034487,-0.0676362 0.067522,-0.0879044 0.013733,-0.006969 0.026277,-0.0171015 0.0412,-0.0209069 0.013468,-0.003435 0.027798,-1.7139e-4 0.041697,-2.327e-4 0.076309,-3.366e-4 0.1526271,-4.4194e-4 0.2289219,0.001345 0.082215,0.001921 0.1634425,-0.009754 0.2455362,-0.006741 0.013827,0.005096 0.027654,0.0101914 0.041481,0.0152871 0.00103,0.002926 4.388e-4,0.007188 0.0031,0.008779 0.011387,0.006799 0.025419,0.008295 0.036824,0.0150617 0.056928,0.0337751 0.1070203,0.0816993 0.1611605,0.11944088 0.036061,0.0154154 0.074835,0.0251296 0.1088542,0.0446406 0.010235,0.00587 0.015999,0.0175217 0.025401,0.0246497 0.037546,0.0284657 0.074687,0.0401354 0.1222844,0.0345403 0.084314,0.001423 0.1697688,0.009545 0.2526989,-0.009172 0.136651,3.4137e-4 0.2696375,0.0380735 0.4057304,0.0458452 0.057976,0.003311 0.1161413,0 0.1742119,0 0.055014,0 0.1100286,0 0.1650429,0 0,0 0,0.0366762 0,0.0366762 z"
       transform="translate(0,1036.3622)" />
    <path
       style="fill:none;stroke:#000000;stroke-width:0.5;stroke-linecap:butt;stroke-linejoin:round;stroke-miterlimit:4;stroke-opacity:1;stroke-dasharray:none"
       id="path3724"
       d="m 5.8498527,2.1180611 c 0.2218879,0.00578 0.2987484,0.014575 0.4618513,-0.141646 0.035671,-0.012588 0.06104,-0.05085 0.093638,-0.067195 0.058506,-0.029335 0.090008,-0.013249 0.1355966,-0.068328 0.012912,-0.013301 0.023134,-0.029894 0.038737,-0.039903 0.020305,-0.013026 0.044378,-0.018947 0.066815,-0.027808 0.064564,-0.025498 0.1158511,-0.039226 0.1841999,-0.026713 0.031505,0.00601 0.1496552,0.014976 0.1738525,0.00475 0.017644,-0.00745 0.03077,-0.022819 0.046155,-0.034229 0.047807,-0.023988 0.1083264,-0.055884 0.1582721,-0.074479 0.029794,-0.011093 0.076056,-0.016643 0.1049113,-0.036168 0.095696,-0.064751 -0.091049,0.027352 0.071444,-0.046072 0.021868,-0.010443 0.060072,-0.019568 0.067596,-0.049889 0.010758,-0.043356 -0.02567,-0.1988289 -0.031355,-0.2546511 -0.00526,-0.049219 0.0054,-0.097735 0.00676,-0.1467212 3e-4,-0.010808 -0.00254,-0.021955 1.148e-4,-0.032436 0.004,-0.015777 0.012965,-0.029858 0.019447,-0.044787 0.00307,-0.00673 0.015751,-0.0546512 0.039215,-0.0504612 0.01351,0.002413 0.022883,0.0151752 0.034654,0.0222316 0.057001,0.034171 0.1039879,0.075453 0.1535919,0.1197817 0.022474,0.016512 0.042588,0.036848 0.067422,0.049535 0.030877,0.015774 0.1123308,0.027608 0.1440532,0.035642 0.078015,0.019756 0.1482348,0.055371 0.2252768,0.078159 0.1038508,0.050455 0.1829344,0.030057 0.2899769,0.021837 0.072059,7.044e-4 0.1439664,0.00373 0.2160692,0.00307 0.085816,-8.907e-4 0.1716347,-4.854e-4 0.2574522,-3.531e-4 0.1391299,-0.00656 0.2181585,-0.00221 0.3466756,0.056502 0.019063,0.00871 0.039112,0.015964 0.056362,0.027867 0.020081,0.013857 0.036417,0.032479 0.054625,0.048719 0.013312,0.01041 0.02445,0.024467 0.039938,0.03123 0.041708,0.018211 0.088705,-0.00427 0.1290314,-0.012435 0.049235,-0.00996 0.059861,-0.00864 0.1089801,-0.010934 0.0153,0.00609 0.100267,-0.0029 0.1120025,0.00661 0.040879,0.033131 0.020372,0.071506 0.068167,0.093921 0.045301,0.097862 0.1387723,0.066438 0.2234222,0.050021 0.07257,-0.00435 0.145136,0.00327 0.217896,0.00272 0,0 2.7e-4,0.036675 2.7e-4,0.036675 l 0,0 c -0.07053,5.105e-4 -0.140827,-0.00621 -0.211189,-0.00339 -0.08575,0.0166 -0.2074774,0.05038 -0.2500019,-0.055029 -0.03224,-0.023584 -0.041545,-0.021823 -0.052012,-0.06262 -0.00213,-0.0083 0.00762,-0.020032 0.00118,-0.025693 -0.00888,-0.00781 -0.094625,-0.00193 -0.1080882,-0.00657 -0.044234,0.0019 -0.056816,7.591e-4 -0.1010553,0.0097 C 9.4370832,1.5136174 9.369105,1.5352848 9.3085823,1.4714507 9.2931769,1.4571234 9.2796487,1.4404651 9.2623661,1.4284688 9.2456167,1.4168426 9.2260414,1.4099185 9.2075526,1.4013234 9.0839253,1.3438512 9.0099598,1.3419724 8.8755382,1.3479035 8.7898512,1.3477714 8.7041627,1.3473661 8.6184776,1.3482551 8.5471939,1.3489043 8.4760971,1.3461304 8.404861,1.3450854 8.2908911,1.3537062 8.2131588,1.3741423 8.1016203,1.3218262 8.0257162,1.2990412 7.9562304,1.2639009 7.8793677,1.2444297 7.8300867,1.2319456 7.7671316,1.226194 7.7210218,1.2024118 7.6952037,1.1890955 7.6742675,1.167921 7.6508903,1.1506756 c -0.044971,-0.040277 -0.069954,-0.065168 -0.118643,-0.09953 -0.011328,-0.00799 -0.025528,-0.011834 -0.035852,-0.021088 -0.00534,-0.00478 0.00522,-0.027921 0.00231,-0.021372 -0.00578,0.013027 -0.011817,0.025942 -0.017726,0.038912 -0.00529,0.00971 -0.013156,0.018414 -0.015865,0.029135 -0.0028,0.011093 1.628e-4,0.022889 -1.716e-4,0.034326 -0.00138,0.047089 -0.011465,0.093682 -0.00688,0.1409863 0.00743,0.074114 0.047549,0.2161171 0.023201,0.2816235 -0.013247,0.035641 -0.052309,0.046399 -0.081665,0.060392 -0.092244,0.03538 0.017265,-0.012147 -0.070874,0.045825 -0.033104,0.021773 -0.06836,0.022584 -0.1049225,0.036173 -0.046733,0.017368 -0.1075741,0.048971 -0.1526831,0.071402 -0.021748,0.013471 -0.041529,0.030819 -0.065244,0.040413 -0.027611,0.01117 -0.1477398,7.028e-4 -0.182057,-0.00538 -0.061967,-0.012425 -0.1048517,0.00332 -0.1640091,0.024863 -0.017895,0.00652 -0.037741,0.00897 -0.053815,0.019183 -0.015367,0.00976 -0.025369,0.02612 -0.038054,0.03918 -0.04586,0.046405 -0.025918,0.03619 -0.093205,0.058982 -0.014958,0.00507 -0.031603,0.00539 -0.045697,0.012518 -0.032051,0.016212 -0.05675,0.053288 -0.092035,0.065756 -0.1709034,0.1619112 -0.2564096,0.1586816 -0.4871452,0.1517636 0,0 0,-0.036676 0,-0.036676 z"
       transform="translate(0,1036.3622)" />
    <path
       style="fill:none;stroke:#000000;stroke-width:0.5;stroke-linecap:butt;stroke-linejoin:round;stroke-miterlimit:4;stroke-opacity:1;stroke-dasharray:none"
       id="path3726"
       d="m 8.0871005,0.54098478 c 0.1169054,0 0.2338107,0 0.3507161,0 0.063037,0 0.1260744,0 0.1891116,0 0,0 0,0.0366762 0,0.0366762 l 0,0 c -0.063037,0 -0.1260744,0 -0.1891116,0 -0.1169054,0 -0.2338107,0 -0.3507161,0 0,0 0,-0.0366762 0,-0.0366762 z"
       transform="translate(0,1036.3622)" />
  </g>
</svg>
