<?xml version="1.0" encoding="UTF-8" standalone="no"?>
<!-- Created with Inkscape (http://www.inkscape.org/) -->

<svg
   xmlns:dc="http://purl.org/dc/elements/1.1/"
   xmlns:cc="http://creativecommons.org/ns#"
   xmlns:rdf="http://www.w3.org/1999/02/22-rdf-syntax-ns#"
   xmlns:svg="http://www.w3.org/2000/svg"
   xmlns="http://www.w3.org/2000/svg"
   xmlns:sodipodi="http://sodipodi.sourceforge.net/DTD/sodipodi-0.dtd"
   xmlns:inkscape="http://www.inkscape.org/namespaces/inkscape"
   width="32.170078"
   height="31.840523"
   id="svg5795"
   version="1.1"
   inkscape:version="0.91 r13725"
   sodipodi:docname="none.svg">
  <defs
     id="defs5797" />
  <sodipodi:namedview
     id="base"
     pagecolor="#ffffff"
     bordercolor="#666666"
     borderopacity="1.0"
     inkscape:pageopacity="0.0"
     inkscape:pageshadow="2"
     inkscape:zoom="5.1817669"
     inkscape:cx="8.2633184"
     inkscape:cy="14.150689"
     inkscape:document-units="px"
     inkscape:current-layer="g4139"
     showgrid="false"
     inkscape:window-width="966"
     inkscape:window-height="852"
     inkscape:window-x="472"
     inkscape:window-y="506"
     inkscape:window-maximized="0"
     fit-margin-top="0"
     fit-margin-left="0"
     fit-margin-right="0"
     fit-margin-bottom="0" />
  <metadata
     id="metadata5800">
    <rdf:RDF>
      <cc:Work
         rdf:about="">
        <dc:format>image/svg+xml</dc:format>
        <dc:type
           rdf:resource="http://purl.org/dc/dcmitype/StillImage" />
        <dc:title />
      </cc:Work>
    </rdf:RDF>
  </metadata>
  <g
     inkscape:label="Calque 1"
     inkscape:groupmode="layer"
     id="layer1"
     transform="translate(-8.6143215,-1014.1993)">
    <g
       id="g3845"
       transform="translate(-16.339454,1056.3177)">
      <g
         id="g4139"
         inkscape:export-xdpi="44.752892"
         inkscape:export-ydpi="44.752892">
        <g
           id="g4146"
           inkscape:export-xdpi="45.21981"
           inkscape:export-ydpi="45.21981">
          <g
             transform="translate(-78.269876,-62.466311)"
             style="stroke:#3a9ed6;stroke-opacity:1"
             inkscape:export-filename="/Volumes/partage/private/marketing/Design/Produits/BPMN/design/nodes/boundary-events/png/none.png"
             inkscape:export-ydpi="90"
             inkscape:export-xdpi="90"
             id="g4674">
            <path
               sodipodi:type="arc"
               style="fill:#ffffff;fill-opacity:0;stroke:#3a9ed6;stroke-width:4.26015568;stroke-miterlimit:4;stroke-opacity:1;stroke-dasharray:none"
               id="path3753"
               sodipodi:cx="110"
               sodipodi:cy="98.076469"
               sodipodi:rx="44.285713"
               sodipodi:ry="57.142857"
               d="M 154.28571,98.076469 A 44.285713,57.142857 0 0 1 110,155.21933 44.285713,57.142857 0 0 1 65.714287,98.076469 44.285713,57.142857 0 0 1 110,40.933613 44.285713,57.142857 0 0 1 154.28571,98.076469 Z"
               transform="matrix(0.34661363,0,0,0.26862556,81.181191,9.9219258)" />
            <path
               sodipodi:type="arc"
               style="fill:#ffffff;fill-opacity:0;stroke:#3a9ed6;stroke-width:5.6615591;stroke-miterlimit:4;stroke-opacity:1;stroke-dasharray:none"
               id="path3753-2"
               sodipodi:cx="110"
               sodipodi:cy="98.076469"
               sodipodi:rx="44.285713"
               sodipodi:ry="57.142857"
               d="M 154.28571,98.076469 A 44.285713,57.142857 0 0 1 110,155.21933 44.285713,57.142857 0 0 1 65.714287,98.076469 44.285713,57.142857 0 0 1 110,40.933613 44.285713,57.142857 0 0 1 154.28571,98.076469 Z"
               transform="matrix(0.26081651,0,0,0.20213279,90.618876,16.443302)" />
          </g>
          <g
             id="g3973"
             inkscape:export-xdpi="90"
             inkscape:export-ydpi="90"
             inkscape:export-filename="/Volumes/partage/private/marketing/Design/Produits/BPMN/design/nodes/boundary-events/png/none.png"
             style="fill:#3a9ed6;fill-opacity:1;stroke:none"
             transform="matrix(0.55374478,0,0,0.55374478,-25.02775,-46.281628)">
            <path
               transform="matrix(0.34661363,0,0,0.26862556,81.181191,9.9219258)"
               d="M 154.28571,98.076469 A 44.285713,57.142857 0 0 1 110,155.21933 44.285713,57.142857 0 0 1 65.714287,98.076469 44.285713,57.142857 0 0 1 110,40.933613 44.285713,57.142857 0 0 1 154.28571,98.076469 Z"
               sodipodi:ry="57.142857"
               sodipodi:rx="44.285713"
               sodipodi:cy="98.076469"
               sodipodi:cx="110"
               id="path3975"
               style="fill:#3a9ed6;fill-opacity:1;stroke:none"
               sodipodi:type="arc" />
          </g>
        </g>
      </g>
    </g>
  </g>
</svg>
