<?xml version="1.0" encoding="UTF-8" standalone="no"?>
<svg
   xmlns:oryx="http://www.b3mn.org/oryx"
   xmlns:dc="http://purl.org/dc/elements/1.1/"
   xmlns:cc="http://creativecommons.org/ns#"
   xmlns:rdf="http://www.w3.org/1999/02/22-rdf-syntax-ns#"
   xmlns:svg="http://www.w3.org/2000/svg"
   xmlns="http://www.w3.org/2000/svg"
   xmlns:sodipodi="http://sodipodi.sourceforge.net/DTD/sodipodi-0.dtd"
   xmlns:inkscape="http://www.inkscape.org/namespaces/inkscape"
   width="40"
   height="40"
   version="1.0"
   id="svg2"
   sodipodi:version="0.32"
   inkscape:version="0.46"
   sodipodi:docname="Boundary.svg"
   inkscape:output_extension="org.inkscape.output.svg.inkscape"
   inkscape:export-filename="D:\Workspaces\runtime-VerdeTools\org.obeonetwork.bpmn2.design\view\intermediateevent\escalation.boundary.png"
   inkscape:export-xdpi="46.451614"
   inkscape:export-ydpi="46.451614">
  <metadata
     id="metadata21">
    <rdf:RDF>
      <cc:Work
         rdf:about="">
        <dc:format>image/svg+xml</dc:format>
        <dc:type
           rdf:resource="http://purl.org/dc/dcmitype/StillImage" />
      </cc:Work>
    </rdf:RDF>
  </metadata>
  <sodipodi:namedview
     inkscape:window-height="850"
     inkscape:window-width="1440"
     inkscape:pageshadow="2"
     inkscape:pageopacity="0.0"
     guidetolerance="10.0"
     gridtolerance="10.0"
     objecttolerance="10.0"
     borderopacity="1.0"
     bordercolor="#666666"
     pagecolor="#ffffff"
     id="base"
     showgrid="false"
     inkscape:zoom="11.55"
     inkscape:cx="20"
     inkscape:cy="20"
     inkscape:window-x="-8"
     inkscape:window-y="-8"
     inkscape:current-layer="svg2" />
  <defs
     id="defs4">
    <inkscape:perspective
       sodipodi:type="inkscape:persp3d"
       inkscape:vp_x="0 : 20 : 1"
       inkscape:vp_y="0 : 1000 : 0"
       inkscape:vp_z="40 : 20 : 1"
       inkscape:persp3d-origin="20 : 13.333333 : 1"
       id="perspective23" />
  </defs>
  <oryx:magnets>
    <oryx:magnet
       oryx:cx="16"
       oryx:cy="16"
       oryx:default="yes" />
  </oryx:magnets>
  <oryx:docker
     oryx:cx="16"
     oryx:cy="16" />
  <g
     pointer-events="fill"
     id="g6">
    <defs
       id="defs8">
      <radialGradient
         id="background"
         cx="10%"
         cy="10%"
         r="100%"
         fx="10%"
         fy="10%">
        <stop
           offset="0%"
           stop-color="#ffffff"
           stop-opacity="1"
           id="stop11" />
        <stop
           id="fill_el"
           offset="100%"
           stop-color="#ffffff"
           stop-opacity="1" />
      </radialGradient>
    </defs>
    <circle
       id="bg_frame"
       cx="16"
       cy="16"
       r="15"
       stroke="black"
       fill="url(#background) white"
       stroke-width="1"
       style="stroke-dasharray: 5.5, 3" />
    <circle
       id="frame2_non_interrupting"
       cx="16"
       cy="16"
       r="12"
       stroke="black"
       fill="none"
       stroke-width="1"
       style="stroke-dasharray: 4.5, 3" />
    <circle
       id="frame"
       cx="16"
       cy="16"
       r="15"
       stroke="black"
       fill="none"
       stroke-width="1" />
    <circle
       id="frame2"
       cx="16"
       cy="16"
       r="12"
       stroke="black"
       fill="none"
       stroke-width="1" />
    <path
       d="M 16,8.75 L22,23.75 L16,17 L10,23.75z "
       id="path9"
       style="fill:none;stroke:#000000;stroke-width:1" />
    <text
       font-size="11"
       id="text_name"
       x="16"
       y="33"
       oryx:align="top center"
       stroke="black" />
  </g>
  <path
     style="opacity:0.5;fill:#ffffff;fill-opacity:1;stroke:#ffffff;stroke-width:0.12987013;stroke-miterlimit:4;stroke-dasharray:none"
     d="M 9.9599558,23.790158 C 9.7146797,23.636589 9.6067472,23.515429 9.6381333,23.428898 C 9.935439,22.609227 15.968139,7.5868632 16,7.5868632 C 16.031853,7.5868641 22.064874,22.610008 22.361758,23.428614 C 22.393385,23.515812 22.280892,23.635829 22.019636,23.793635 L 21.630398,24.028745 L 18.849654,20.89316 C 17.320234,19.168589 16.037887,17.757576 16,17.757576 C 15.962113,17.757576 14.678597,19.169913 13.14774,20.896104 C 11.616894,22.622294 10.356421,24.031616 10.346693,24.027928 C 10.336965,24.024242 10.162932,23.917245 9.9599567,23.790159 L 9.9599558,23.790158 z M 13.792208,18.798381 C 14.982684,17.446758 15.97619,16.340885 16,16.340885 C 16.02381,16.340886 17.017316,17.446758 18.207792,18.79838 C 20.172398,21.028919 20.605835,21.479049 20.477827,21.155844 C 18.725169,16.730545 16.0389,10.095238 16,10.095238 C 15.9611,10.095238 13.274831,16.730545 11.522172,21.155844 C 11.394167,21.479049 11.827602,21.02892 13.792208,18.79838 L 13.792208,18.798381 z"
     id="path2389" />
  <path
     style="opacity:0.5;fill:#ffffff;fill-opacity:1;stroke:#ffffff;stroke-width:0.12987013;stroke-miterlimit:4;stroke-dasharray:none"
     d="M 10.005354,23.830436 C 9.8273437,23.728459 9.6666597,23.605903 9.6482762,23.558092 C 9.6123429,23.464632 15.9269,7.5844156 16,7.5844156 C 16.073446,7.5844156 22.387584,23.464914 22.351195,23.558092 C 22.332519,23.605902 22.16168,23.729674 21.97155,23.833138 L 21.62587,24.021257 L 18.83458,20.873074 C 17.299368,19.141577 16.02381,17.724662 16,17.724377 C 15.964268,17.723947 10.9992,23.295592 10.531577,23.860866 C 10.452514,23.956439 10.374593,24.030407 10.358416,24.025242 C 10.342239,24.020079 10.183361,23.932416 10.005352,23.830437 L 10.005354,23.830436 z M 13.532468,19.093126 C 14.580087,17.904952 15.563853,16.787216 15.718615,16.609264 L 16,16.285714 L 16.281385,16.609264 C 18.007455,18.593971 20.386216,21.254553 20.43839,21.258752 C 20.474745,21.261674 20.452424,21.137446 20.388788,20.982684 C 20.325152,20.827922 19.321385,18.315466 18.15819,15.399448 C 16.994996,12.48343 16.02381,10.097598 16,10.097598 C 15.97619,10.097599 15.005004,12.483431 13.84181,15.399448 C 12.678615,18.315465 11.674842,20.827922 11.611209,20.982684 C 11.547577,21.137446 11.525255,21.261676 11.561609,21.258752 C 11.597963,21.255824 12.484848,20.281294 13.532468,19.093123 L 13.532468,19.093126 z"
     id="path2391" />
  <path
     style="opacity:0.5;fill:#ffffff;fill-opacity:1;stroke:#ffffff;stroke-width:0.12987013;stroke-miterlimit:4;stroke-dasharray:none"
     d="M 9.9835134,23.817029 C 9.6628944,23.620106 9.5405307,23.369367 9.7056355,23.247621 C 9.7437342,23.219526 9.7812476,23.112384 9.7889957,23.009526 C 9.7967455,22.906667 9.8337532,22.822511 9.8712381,22.822511 C 9.9087212,22.822511 9.9347801,22.79329 9.9291411,22.757576 C 9.9235013,22.721861 9.9264831,22.67316 9.9357654,22.649351 C 9.9450494,22.625541 9.9642675,22.547619 9.9784762,22.47619 C 9.9926831,22.404762 10.304646,21.625541 10.671724,20.744589 C 11.42415,18.938831 14.422251,11.42669 15.18103,9.4458874 C 15.454658,8.7316017 15.741117,8.051497 15.817619,7.9345437 C 15.894113,7.8175905 15.94697,7.7007074 15.935065,7.6748035 C 15.92316,7.6488996 15.952381,7.6277056 16,7.6277056 C 16.047619,7.6277056 16.088485,7.6666667 16.090805,7.7142857 C 16.093126,7.7619048 16.145983,7.8787879 16.208251,7.974026 C 16.270519,8.0692641 16.54561,8.7316017 16.819567,9.4458874 C 17.607238,11.499579 20.231567,18.078488 21.153957,20.311688 C 21.616156,21.430736 22.00626,22.404762 22.02084,22.47619 C 22.035437,22.547619 22.054952,22.625541 22.064234,22.649351 C 22.073515,22.67316 22.076502,22.721861 22.070857,22.757576 C 22.065221,22.79329 22.091273,22.822511 22.128762,22.822511 C 22.166251,22.822511 22.203255,22.906668 22.211004,23.009526 C 22.218753,23.112384 22.256268,23.219527 22.294364,23.247621 C 22.332459,23.275714 22.369619,23.376623 22.376926,23.471861 C 22.386519,23.596751 22.280009,23.70043 21.994874,23.843787 C 21.777437,23.95311 21.576649,24.008539 21.548684,23.966966 C 21.365827,23.695149 16.05968,17.800866 15.997835,17.800866 C 15.927299,17.800866 10.822241,23.504592 10.56219,23.873945 C 10.419926,24.076009 10.402352,24.074278 9.9835152,23.81703 L 9.9835134,23.817029 z M 13.80239,18.750425 C 14.978727,17.418643 15.967654,16.329004 16,16.329004 C 16.032346,16.329004 17.021273,17.418643 18.19761,18.750423 C 19.373948,20.082202 20.369126,21.192066 20.409117,21.216784 C 20.474771,21.257355 19.620667,19.073578 16.948649,12.368964 C 16.450701,11.119513 16.02381,10.097235 16,10.097235 C 15.97619,10.097235 15.549299,11.119513 15.051351,12.368964 C 12.379333,19.073577 11.525234,21.257356 11.590881,21.216784 C 11.630873,21.192065 12.626052,20.082203 13.80239,18.750423 L 13.80239,18.750425 z"
     id="path2393" />
  <path
     style="opacity:0.5;fill:#ffffff;fill-opacity:1;stroke:#ffffff;stroke-width:0.12987013;stroke-miterlimit:4;stroke-dasharray:none"
     d="M 10.029826,23.893987 C 9.6537429,23.626989 9.6805662,23.658098 9.6386199,23.440287 C 9.6190381,23.338605 9.642039,23.255411 9.6897342,23.255411 C 9.7374268,23.255411 9.7528719,23.217255 9.7240494,23.170621 C 9.6952286,23.123984 9.7202753,22.997362 9.7797108,22.889235 C 9.8391489,22.781106 9.8962398,22.65368 9.9065844,22.606061 C 9.9169299,22.558442 10.478225,21.155844 11.153909,19.489177 C 11.829594,17.822511 13.148026,14.530303 14.083766,12.17316 C 15.019498,9.8160173 15.83103,7.8095238 15.88716,7.7142857 C 15.954727,7.5996364 16.017844,7.570381 16.073939,7.6277056 C 16.120528,7.6753247 16.781169,9.2922078 17.542026,11.220779 C 18.302883,13.149351 19.634095,16.480519 20.500286,18.623377 C 21.366468,20.766234 22.082727,22.558442 22.091965,22.606061 C 22.101203,22.65368 22.142909,22.747359 22.184641,22.814237 C 22.226372,22.881117 22.272199,23.017479 22.286485,23.117268 C 22.300771,23.217058 22.338251,23.386364 22.369792,23.493506 C 22.401645,23.60173 22.389524,23.688312 22.342528,23.688312 C 22.296,23.688312 22.112831,23.786777 21.935489,23.907125 L 21.613056,24.125937 L 21.425576,23.887255 C 21.322459,23.755984 20.595238,22.925494 19.809524,22.041723 C 19.02381,21.157956 17.859489,19.842218 17.222156,19.117868 C 16.584823,18.393517 16.034857,17.800866 16.000026,17.800866 C 15.938745,17.800866 11.067073,23.276396 10.63133,23.835036 C 10.512668,23.987166 10.396104,24.11045 10.372294,24.109007 C 10.348485,24.107565 10.194375,24.010804 10.029829,23.893987 L 10.029826,23.893987 z M 13.918779,18.580087 C 15.020961,17.318182 15.955576,16.285714 15.995706,16.285714 C 16.035835,16.285714 17.034121,17.38598 18.214121,18.730749 C 19.394121,20.075516 20.370623,21.164731 20.38413,21.151222 C 20.397636,21.137715 19.754649,19.491993 18.955255,17.494066 C 18.15587,15.49614 17.176537,13.03355 16.77897,12.021645 C 16.381394,11.00974 16.030857,10.181818 16,10.181818 C 15.969143,10.181818 15.618511,11.00974 15.220831,12.021645 C 14.823143,13.03355 13.857974,15.458874 13.076017,17.411255 C 12.294052,19.363636 11.633129,21.019481 11.607298,21.090909 C 11.532377,21.298087 11.77508,21.034453 13.918779,18.580087 z"
     id="path2395" />
  <path
     style="opacity:0.5;fill:#ffffff;fill-opacity:1;stroke:#ffffff;stroke-width:0.12987013;stroke-miterlimit:4;stroke-dasharray:none"
     d="M 10.01113,23.902712 C 9.8362978,23.788139 9.6693255,23.619004 9.6400779,23.526855 C 9.562787,23.283334 15.825455,7.5909844 16,7.5908113 C 16.091506,7.5907186 17.049818,9.8982147 19.243784,15.401402 C 20.956433,19.697297 22.369697,23.309524 22.384372,23.428571 C 22.406208,23.605705 22.338026,23.689016 22.009056,23.887222 C 21.787965,24.020431 21.599489,24.117835 21.590242,24.103672 C 21.580996,24.089509 20.949541,23.376623 20.187004,22.519481 C 19.424468,21.662338 18.18787,20.25974 17.439022,19.402597 C 16.690165,18.545455 16.044026,17.844156 16.00316,17.844156 C 15.931818,17.844156 15.48303,18.344519 11.989631,22.318911 C 11.123906,23.303837 10.396104,24.109985 10.372294,24.110354 C 10.348485,24.110725 10.18596,24.017283 10.011129,23.902712 L 10.01113,23.902712 z M 13.871671,18.594413 C 15.010615,17.300818 15.968312,16.242424 15.999887,16.242424 C 16.052043,16.242424 20.011264,20.692152 20.2891,21.06302 C 20.354095,21.149789 19.425749,18.756494 18.226104,15.744589 C 17.026459,12.732684 16.02471,10.268398 16,10.268398 C 15.97529,10.268398 14.973541,12.732684 13.773896,15.744589 C 12.574251,18.756494 11.639553,21.159043 11.696793,21.083588 C 11.754032,21.00813 12.732727,19.888003 13.871671,18.59441 L 13.871671,18.594413 z"
     id="path2397" />
  <path
     style="opacity:0.5;fill:#ffffff;fill-opacity:1;stroke:#ffffff;stroke-width:0.12987013;stroke-miterlimit:4;stroke-dasharray:none"
     d="M 15.085342,27.401405 C 10.564168,27.076588 6.5903013,23.956253 5.1395403,19.591829 C 4.6808944,18.21206 4.5393186,17.167173 4.5979455,15.594687 C 4.6246095,14.879513 4.7107351,14.002165 4.7893351,13.645022 C 5.8281965,8.9246606 9.5840996,5.4046113 14.354978,4.6800494 C 20.248545,3.7849835 25.905697,7.7294597 27.212502,13.645022 C 27.408753,14.533416 27.479134,16.603122 27.344831,17.536454 C 26.941723,20.337693 25.646814,22.728321 23.506268,24.623088 C 21.727714,26.197428 19.326424,27.226987 17.082251,27.377402 C 16.748918,27.399741 16.359307,27.428369 16.21645,27.441016 C 16.073593,27.453661 15.564589,27.435838 15.085342,27.401406 L 15.085342,27.401405 z M 9.6229515,23.554706 C 9.5947524,23.481225 9.5531126,23.439672 9.5304182,23.462367 C 9.5077247,23.485064 9.5148355,23.545184 9.5462234,23.595971 C 9.6315974,23.734106 9.6814944,23.707271 9.6229506,23.554707 L 9.6229515,23.554706 z M 16.08658,7.4978355 C 16.08658,7.4502165 16.047619,7.4112554 16,7.4112554 C 15.952381,7.4112554 15.91342,7.4502165 15.91342,7.4978355 C 15.91342,7.5454545 15.952381,7.5844156 16,7.5844156 C 16.047619,7.5844156 16.08658,7.5454545 16.08658,7.4978355 z"
     id="path2399" />
  <path
     style="opacity:0.5;fill:#ffffff;fill-opacity:1;stroke:#ffffff;stroke-width:0.12987013;stroke-miterlimit:4;stroke-dasharray:none"
     d="M 15.034814,27.404433 C 11.588157,27.119451 8.4986234,25.303433 6.5286675,22.404549 C 4.6815325,19.686405 4.1069714,16.36919 4.9214814,13.125541 C 5.533845,10.686914 7.1211229,8.3389082 9.2034632,6.7913584 C 12.144372,4.6057411 16.080693,3.9699887 19.537342,5.1223455 C 23.442251,6.4241446 26.319792,9.6191541 27.213152,13.645022 C 27.432294,14.632554 27.478866,16.697627 27.306424,17.780243 C 26.655074,21.869552 23.859844,25.283976 19.963749,26.749462 C 19.232909,27.024366 17.99697,27.306335 17.255411,27.367355 C 16.016892,27.46927 15.852173,27.472018 15.034814,27.404435 L 15.034814,27.404433 z M 9.6229515,23.554706 C 9.5947524,23.481225 9.5531126,23.439672 9.5304182,23.462367 C 9.5077247,23.485064 9.5148355,23.545184 9.5462234,23.595971 C 9.6315974,23.734106 9.6814944,23.707271 9.6229506,23.554707 L 9.6229515,23.554706 z M 16.08658,7.4978355 C 16.08658,7.4502165 16.047619,7.4112554 16,7.4112554 C 15.952381,7.4112554 15.91342,7.4502165 15.91342,7.4978355 C 15.91342,7.5454545 15.952381,7.5844156 16,7.5844156 C 16.047619,7.5844156 16.08658,7.5454545 16.08658,7.4978355 z"
     id="path2401" />
  <path
     style="opacity:0.5;fill:#ffffff;fill-opacity:1;stroke:#ffffff;stroke-width:0.12987013;stroke-miterlimit:4;stroke-dasharray:none"
     d="M 15.393939,27.439918 C 10.024216,27.149919 5.5330944,23.105382 4.6933342,17.803351 C 4.5202693,16.710667 4.5669247,14.636104 4.7868511,13.645022 C 5.2609645,11.50845 6.2236017,9.6878277 7.6883117,8.1575143 C 9.9594519,5.7846502 12.800199,4.560116 16.04329,4.5560139 C 21.553749,4.5490416 26.419307,8.682187 27.301169,14.119251 C 27.464606,15.126855 27.463126,16.84761 27.297957,17.866016 C 26.566346,22.376922 23.091368,26.097759 18.640693,27.135753 C 17.667983,27.362612 16.312978,27.489551 15.393939,27.439917 L 15.393939,27.439918 z M 16.08658,7.4978355 C 16.08658,7.4502165 16.047619,7.4112554 16,7.4112554 C 15.952381,7.4112554 15.91342,7.4502165 15.91342,7.4978355 C 15.91342,7.5454545 15.952381,7.5844156 16,7.5844156 C 16.047619,7.5844156 16.08658,7.5454545 16.08658,7.4978355 z"
     id="path2403" />
  <path
     style="opacity:0.5;fill:#ffffff;fill-opacity:1;stroke:#ffffff;stroke-width:0.12987013;stroke-miterlimit:4;stroke-dasharray:none"
     d="M 14.981983,27.407519 C 12.874277,27.234567 10.84924,26.444556 9.0585879,25.096678 C 6.9519177,23.510925 5.5024251,21.278188 4.8280199,18.580087 C 4.588813,17.623083 4.5028147,15.526765 4.6564745,14.398371 C 5.2270312,10.208495 8.2483818,6.5312182 12.233766,5.1760658 C 13.613801,4.7068121 14.325887,4.5974026 16,4.5974026 C 17.137887,4.5974026 17.69839,4.6366372 18.251082,4.754974 C 21.758892,5.506039 24.688805,7.7545879 26.281333,10.917749 C 26.698017,11.745387 27.151351,13.179637 27.306823,14.162129 C 27.481221,15.264223 27.432658,17.403398 27.210476,18.406926 C 26.654623,20.917614 25.216537,23.271285 23.288208,24.82639 C 22.344779,25.587223 21.551264,26.083557 20.660952,26.469704 C 18.873654,27.2449 16.923939,27.566872 14.981983,27.407519 z"
     id="path2405" />
  <path
     style="opacity:0.5;fill:#ffffff;fill-opacity:1;stroke:#ffffff;stroke-width:0.12987013;stroke-miterlimit:4;stroke-dasharray:none"
     d="M 15.177489,27.445218 C 13.002805,27.232958 11.341526,26.660378 9.6681221,25.546349 C 7.2792675,23.956024 5.6435801,21.643771 4.8626814,18.753247 C 4.5588935,17.628761 4.4772736,15.396709 4.6935481,14.12791 C 5.2420788,10.909906 6.9816745,8.2448909 9.7325576,6.4082909 C 11.562534,5.1865255 13.713403,4.5548087 16.04329,4.5548087 C 18.819472,4.5548095 21.342944,5.4993022 23.532468,7.3578823 C 25.019524,8.6201671 26.214407,10.425086 26.880182,12.414718 C 27.284727,13.623684 27.427844,14.558084 27.428242,15.992988 C 27.429134,19.170809 26.322485,21.861229 24.100519,24.0832 C 22.392268,25.791445 20.327446,26.880803 18.049429,27.27563 C 17.284225,27.408255 15.735654,27.4997 15.177489,27.445219 L 15.177489,27.445218 z"
     id="path2407" />
  <path
     style="opacity:0.5;fill:#ffffff;fill-opacity:1;stroke:#ffffff;stroke-width:0.12987013;stroke-miterlimit:4;stroke-dasharray:none"
     d="M 14.614719,27.403646 C 12.026304,27.07141 9.8280113,25.991532 7.9352658,24.122466 C 6.42649,22.632564 5.4060736,20.855452 4.8550398,18.758072 C 4.5629688,17.646368 4.4821784,15.408624 4.6873463,14.113244 C 5.4417411,9.350174 9.3314294,5.4608199 14.116667,4.6847316 C 15.156147,4.5161455 16.980035,4.5176667 17.958355,4.6879368 C 22.0751,5.4044225 25.530104,8.3816398 26.896009,12.38961 C 27.33781,13.685979 27.4531,14.587658 27.405229,16.372294 C 27.37045,17.66935 27.327004,18.06869 27.146234,18.753247 C 26.233299,22.210406 24.007861,24.909465 20.828476,26.415554 C 19.052104,27.257032 16.559957,27.653323 14.614719,27.403644 L 14.614719,27.403646 z"
     id="path2409" />
  <path
     style="opacity:0.5;fill:#ffffff;fill-opacity:1;stroke:#ffffff;stroke-width:0.12987013;stroke-miterlimit:4;stroke-dasharray:none"
     d="M 14.268398,27.37093 C 12.516416,27.079086 10.740991,26.348586 9.3167004,25.333551 C 7.91829,24.336959 6.4948623,22.674842 5.7155186,21.128494 C 5.3245004,20.35265 4.8447922,18.912866 4.6992589,18.078314 C 4.5313351,17.11537 4.5320199,14.932653 4.7005481,13.966238 C 5.0897351,11.734473 6.1462277,9.6817359 7.7518848,8.0375706 C 9.2437784,6.5098987 11.10295,5.4133065 13.099567,4.883355 C 14.10645,4.6161022 14.194667,4.6074623 15.95671,4.6035065 C 17.587134,4.5998468 17.859835,4.6205697 18.597403,4.8041784 C 22.836485,5.8594407 25.94684,8.8976476 27.136061,13.144749 C 27.436606,14.218095 27.525498,16.698689 27.30826,17.950092 C 26.904606,20.275369 25.894779,22.257006 24.244952,23.961385 C 22.576667,25.684837 20.60568,26.775512 18.314606,27.243041 C 17.159255,27.478808 15.273758,27.538404 14.268398,27.370932 L 14.268398,27.37093 z"
     id="path2411" />
</svg>
