<?xml version="1.0" encoding="UTF-8" standalone="no"?>
<!-- Created with Inkscape (http://www.inkscape.org/) -->

<svg
   xmlns:dc="http://purl.org/dc/elements/1.1/"
   xmlns:cc="http://creativecommons.org/ns#"
   xmlns:rdf="http://www.w3.org/1999/02/22-rdf-syntax-ns#"
   xmlns:svg="http://www.w3.org/2000/svg"
   xmlns="http://www.w3.org/2000/svg"
   xmlns:sodipodi="http://sodipodi.sourceforge.net/DTD/sodipodi-0.dtd"
   xmlns:inkscape="http://www.inkscape.org/namespaces/inkscape"
   version="1.0"
   width="24"
   height="24"
   viewBox="0 0 24 24"
   id="svg2"
   sodipodi:version="0.32"
   inkscape:version="0.47 r22583"
   sodipodi:docname="ManualTask.svg"
   inkscape:export-filename="C:\apps\eclipse-workspace-gmf\trunk\org.eclipse.stp.bpmn.edit\icons\full\obj16\activities\task.png"
   inkscape:export-xdpi="60"
   inkscape:export-ydpi="60">
  <metadata
     id="metadata8">
    <rdf:RDF>
      <cc:Work
         rdf:about="">
        <dc:format>image/svg+xml</dc:format>
        <dc:type
           rdf:resource="http://purl.org/dc/dcmitype/StillImage" />
        <dc:title></dc:title>
      </cc:Work>
    </rdf:RDF>
  </metadata>
  <sodipodi:namedview
     inkscape:window-height="576"
     inkscape:window-width="853"
     inkscape:pageshadow="2"
     inkscape:pageopacity="0.0"
     guidetolerance="10.0"
     gridtolerance="10.0"
     objecttolerance="10.0"
     borderopacity="1.0"
     bordercolor="#666666"
     pagecolor="#ffffff"
     id="base"
     inkscape:zoom="15.625"
     inkscape:cx="12"
     inkscape:cy="12"
     inkscape:window-x="44"
     inkscape:window-y="66"
     inkscape:current-layer="svg2"
     showgrid="false"
     inkscape:window-maximized="0" />
  <defs
     id="defs13">
    <inkscape:perspective
       sodipodi:type="inkscape:persp3d"
       inkscape:vp_x="0 : 12 : 1"
       inkscape:vp_y="0 : 1000 : 0"
       inkscape:vp_z="24 : 12 : 1"
       inkscape:persp3d-origin="12 : 8 : 1"
       id="perspective3952" />
    <inkscape:perspective
       id="perspective3920"
       inkscape:persp3d-origin="8 : 5.3333333 : 1"
       inkscape:vp_z="16 : 8 : 1"
       inkscape:vp_y="0 : 1000 : 0"
       inkscape:vp_x="0 : 8 : 1"
       sodipodi:type="inkscape:persp3d" />
  </defs>
  <rect
     width="17.722519"
     height="12.222426"
     rx="2.4300001"
     ry="2.4300001"
     x="3.1387405"
     y="5.8887868"
     style="opacity:1;fill:white;fill-opacity:1;stroke:black;stroke-width:0.5;stroke-linecap:square;stroke-linejoin:round;stroke-miterlimit:0;stroke-dasharray:none;stroke-opacity:1"
     id="rect5423" />
  <g
     inkscape:label="Layer 1"
     id="layer1"
     transform="translate(4.960974,4.170565)">
    <path
       sodipodi:nodetypes="cscccsccccsscccscccccscccssccc"
       id="path3943"
       d="m 10.54159,2.6202963 c 0,0 0.36039,1.5767333 -6e-6,1.5767333 -0.360396,0 -5.4960394,0 -5.4960394,0 l 0,0.4955446 7.8836634,0 c 0,0 0.301658,0.053886 0.301658,0.5224876 0,0.4686015 -0.267279,0.9974998 -0.267279,0.9974998 l -4.49428,0 0,0.6423888 4.730198,0 c 0,0 0.187042,0.2698637 0.187042,0.6980507 0,0.4281869 0.10749,0.4342766 -0.04505,0.698484 -0.15254,0.2642074 -4.9172395,0.1351485 -4.9172395,0.1351485 l 0,0.5856436 4.7752475,0 c 0,0 0.467576,0.3252085 0.135149,0.9009901 -0.332428,0.5757817 -0.312921,0.5419947 -0.312921,0.5419947 l -5.002921,0 0,0.899589 2.928218,0 0,0.630694 c 0,0 0.337871,-0.337872 0,0 -0.337871,0.337871 0.09835,-0.145011 0.09835,-0.145011 l -0.774894,1.045192 -8.3333503,0 c -0.099421,0.0396 -0.3109916,-1.326869 -0.1802,-0.225248 C 1.8002897,12.985641 1.7123527,5.7225069 1.7120587,3.5663304 1.7120084,3.1974607 1.8019857,2.890594 1.8019857,2.890594 L 2.0272175,2.6674363 10.54159,2.6202963 z"
       style="fill:none;stroke:#000000;stroke-width:1px;stroke-linecap:butt;stroke-linejoin:miter;stroke-opacity:1" />
  </g>
</svg>
