<?xml version="1.0" encoding="UTF-8" standalone="no"?>
<!-- Created with Inkscape (http://www.inkscape.org/) -->

<svg
   xmlns:dc="http://purl.org/dc/elements/1.1/"
   xmlns:cc="http://creativecommons.org/ns#"
   xmlns:rdf="http://www.w3.org/1999/02/22-rdf-syntax-ns#"
   xmlns:svg="http://www.w3.org/2000/svg"
   xmlns="http://www.w3.org/2000/svg"
   xmlns:sodipodi="http://sodipodi.sourceforge.net/DTD/sodipodi-0.dtd"
   xmlns:inkscape="http://www.inkscape.org/namespaces/inkscape"
   width="32"
   height="32"
   id="svg5795"
   version="1.1"
   inkscape:version="0.48.5 r10040"
   sodipodi:docname="cancel.svg">
  <defs
     id="defs5797" />
  <sodipodi:namedview
     id="base"
     pagecolor="#ffffff"
     bordercolor="#666666"
     borderopacity="1.0"
     inkscape:pageopacity="0.0"
     inkscape:pageshadow="2"
     inkscape:zoom="7.328125"
     inkscape:cx="1.7868009"
     inkscape:cy="18.339532"
     inkscape:document-units="px"
     inkscape:current-layer="layer1"
     showgrid="false"
     inkscape:window-width="966"
     inkscape:window-height="852"
     inkscape:window-x="1598"
     inkscape:window-y="324"
     inkscape:window-maximized="0" />
  <metadata
     id="metadata5800">
    <rdf:RDF>
      <cc:Work
         rdf:about="">
        <dc:format>image/svg+xml</dc:format>
        <dc:type
           rdf:resource="http://purl.org/dc/dcmitype/StillImage" />
        <dc:title />
      </cc:Work>
    </rdf:RDF>
  </metadata>
  <g
     inkscape:label="Calque 1"
     inkscape:groupmode="layer"
     id="layer1"
     transform="translate(0,-1020.3622)">
    <g
       id="g9479">
      <g
         style="stroke:#8dc03d;stroke-opacity:1"
         transform="translate(-101.5,899.96429)"
         id="g5099">
        <path
           transform="matrix(0.34661363,0,0,0.26862556,79.372501,110.05206)"
           d="m 154.28571,98.076469 c 0,31.559131 -19.82739,57.142861 -44.28571,57.142861 -24.458324,0 -44.285713,-25.58373 -44.285713,-57.142861 0,-31.559128 19.827389,-57.142856 44.285713,-57.142856 24.45832,0 44.28571,25.583728 44.28571,57.142856 z"
           sodipodi:ry="57.142857"
           sodipodi:rx="44.285713"
           sodipodi:cy="98.076469"
           sodipodi:cx="110"
           id="path4717"
           style="fill:#ffffff;fill-opacity:1;stroke:#8dc03d;stroke-width:4.26015567999999956;stroke-miterlimit:4;stroke-opacity:1;stroke-dasharray:none"
           sodipodi:type="arc" />
        <path
           transform="matrix(0.26081651,0,0,0.20213279,88.810186,116.57343)"
           d="m 154.28571,98.076469 c 0,31.559131 -19.82739,57.142861 -44.28571,57.142861 -24.458324,0 -44.285713,-25.58373 -44.285713,-57.142861 0,-31.559128 19.827389,-57.142856 44.285713,-57.142856 24.45832,0 44.28571,25.583728 44.28571,57.142856 z"
           sodipodi:ry="57.142857"
           sodipodi:rx="44.285713"
           sodipodi:cy="98.076469"
           sodipodi:cx="110"
           id="path4719"
           style="fill:#ffffff;fill-opacity:1;stroke:#8dc03d;stroke-width:5.66155909999999984;stroke-miterlimit:4;stroke-opacity:1;stroke-dasharray:none"
           sodipodi:type="arc" />
      </g>
      <path
         d="m 8.7852698,1031.5525 2.4049202,-2.4049 4.80981,4.8097 4.80982,-4.8097 2.40491,2.4049 -4.80982,4.8097 4.80982,4.8098 -2.40491,2.4048 -4.80982,-4.8097 -4.80981,4.8097 -2.4049202,-2.4048 4.8098202,-4.8098 -4.8098202,-4.8097 z"
         id="cancelCross-2"
         style="fill:#ffffff;fill-opacity:1;stroke:#8dc03d;stroke-width:1.50000000000000000;stroke-miterlimit:4;stroke-opacity:1;stroke-dasharray:none"
         inkscape:connector-curvature="0" />
    </g>
  </g>
</svg>
